<mxfile host="app.diagrams.net" modified="2023-09-28T06:42:53.313Z" agent="Mozilla/5.0 (Windows NT 10.0; Win64; x64) AppleWebKit/537.36 (KHTML, like Gecko) Chrome/117.0.0.0 Safari/537.36 Edg/117.0.2045.43" version="21.8.0" etag="jbcFqrq7f4Af222J5ZoA" type="github">
  <diagram name="Page-1" id="4NmhqNPq8kEKySHbg--0">
    <mxGraphModel>
      <root>
        <mxCell id="0" />
        <mxCell id="1" parent="0" />
      </root>
    </mxGraphModel>
  </diagram>
</mxfile>
